<?xml version="1.0" standalone="no"?>
<!DOCTYPE svg PUBLIC "-//W3C//DTD SVG 20010904//EN"
 "http://www.w3.org/TR/2001/REC-SVG-20010904/DTD/svg10.dtd">
<svg version="1.0" xmlns="http://www.w3.org/2000/svg"
 width="1184.000000pt" height="864.000000pt" viewBox="0 0 1184.000000 864.000000"
 preserveAspectRatio="xMidYMid meet">
<metadata>
Created by potrace 1.16, written by Peter Selinger 2001-2019
</metadata>
<g transform="translate(0.000000,864.000000) scale(0.100000,-0.100000)"
fill="#000000" stroke="none">
<path d="M49 8626 c9 -11 9 -16 0 -21 -6 -4 -15 -1 -20 6 -8 12 -11 12 -19 -1
-6 -10 -10 -1509 -10 -4312 l0 -4298 5920 0 5920 0 0 4320 0 4320 -5901 0
c-5079 0 -5900 -2 -5890 -14z m7105 -933 c10 -10 87 -124 172 -253 222 -339
238 -364 244 -370 3 -3 10 -12 15 -21 6 -9 19 -29 29 -45 49 -71 213 -321 226
-344 9 -14 158 -239 333 -501 222 -332 317 -484 317 -503 0 -25 -41 -76 -61
-76 -4 0 -47 -18 -96 -41 -48 -22 -108 -50 -133 -61 -25 -11 -76 -35 -115 -53
-38 -18 -92 -43 -120 -55 -51 -23 -171 -79 -280 -130 -33 -16 -96 -44 -140
-63 -44 -19 -142 -65 -218 -101 -76 -36 -140 -66 -142 -66 -3 0 -179 -83 -311
-146 -39 -19 -74 -34 -77 -34 -4 0 -64 -27 -134 -61 -71 -33 -137 -64 -148
-69 -11 -4 -54 -24 -95 -43 -105 -49 -150 -67 -169 -67 -27 0 -54 39 -48 69
13 65 30 127 37 136 4 6 11 30 15 55 4 25 11 50 15 55 4 6 11 28 15 50 4 22
10 45 15 50 7 9 13 32 43 160 7 28 15 55 19 61 4 6 10 30 14 53 4 23 11 44 15
47 5 3 9 14 9 26 0 11 7 41 15 67 7 25 19 66 26 91 6 25 18 65 25 89 9 29 10
48 4 56 -19 22 -228 105 -267 105 -12 0 -24 4 -27 9 -3 4 -31 11 -62 15 -31 3
-64 10 -73 15 -9 4 -59 11 -112 15 l-97 6 -88 -177 c-101 -207 -118 -233 -146
-233 -12 0 -49 18 -84 40 -35 22 -66 40 -69 40 -3 0 -31 16 -61 35 -30 19 -57
35 -59 35 -3 0 -24 12 -48 27 -67 42 -298 173 -305 173 -4 0 -63 -89 -132
-197 -173 -272 -174 -273 -212 -273 -17 0 -39 6 -47 14 -33 29 -241 166 -253
166 -32 0 -472 -325 -635 -469 -102 -91 -130 -104 -153 -76 -24 29 1 103 128
365 241 500 611 911 1064 1184 119 71 253 139 358 181 25 9 54 21 65 25 11 5
52 18 90 31 39 12 78 26 87 30 10 5 25 9 35 9 9 0 30 4 47 10 189 59 336 78
661 86 245 7 316 2 660 -43 l40 -5 29 88 c15 49 35 107 42 129 8 23 14 50 14
62 0 12 4 24 9 28 5 3 12 20 16 38 4 17 12 50 20 72 7 22 21 67 30 100 10 33
21 68 26 77 5 10 13 34 18 55 6 21 18 63 26 93 9 30 22 73 27 95 15 54 35 75
73 75 17 0 39 -8 49 -17z m-1510 -3682 c14 -15 16 -29 10 -68 -3 -26 -13 -60
-20 -75 -8 -15 -14 -40 -14 -55 -1 -15 -7 -39 -15 -53 -8 -14 -14 -38 -15 -53
0 -16 -5 -38 -12 -50 -6 -12 -15 -38 -19 -57 -4 -19 -12 -48 -17 -65 -6 -16
-18 -57 -27 -90 -9 -33 -23 -80 -31 -105 -8 -25 -14 -55 -14 -67 0 -12 -4 -24
-9 -27 -5 -4 -12 -25 -16 -49 -4 -23 -11 -46 -15 -52 -9 -12 -30 -95 -36 -145
-5 -34 -3 -36 48 -59 29 -13 67 -29 83 -37 17 -7 47 -16 68 -20 20 -3 40 -10
42 -15 3 -4 27 -11 53 -15 26 -3 56 -11 67 -17 11 -6 58 -14 105 -19 47 -4
101 -11 122 -14 l36 -6 96 194 c108 217 115 228 145 228 19 0 36 -8 116 -57
24 -14 258 -152 294 -173 14 -8 42 -25 61 -36 88 -54 153 -85 159 -77 3 5 31
49 62 98 31 50 97 152 148 228 83 123 95 137 121 137 20 0 72 -28 161 -87 73
-47 138 -86 144 -86 13 0 212 131 345 228 127 92 219 168 311 254 77 71 110
86 137 59 18 -18 15 -49 -13 -106 -14 -29 -25 -54 -25 -57 0 -3 -25 -57 -55
-121 -30 -64 -55 -118 -55 -119 0 -1 -24 -45 -53 -96 -218 -384 -461 -669
-772 -905 -180 -137 -443 -283 -642 -358 -103 -39 -121 -45 -178 -61 -33 -9
-75 -21 -92 -26 -39 -12 -114 -27 -203 -40 -36 -5 -83 -15 -105 -21 -23 -6
-175 -12 -362 -15 -274 -4 -330 -2 -377 11 -30 9 -91 16 -138 16 -46 0 -89 5
-95 11 -6 6 -25 9 -44 7 -28 -2 -35 -8 -41 -33 -18 -77 -31 -121 -38 -136 -5
-9 -12 -34 -16 -54 -4 -21 -13 -50 -20 -64 -8 -14 -14 -36 -14 -49 0 -12 -4
-30 -9 -40 -5 -9 -16 -44 -26 -77 -9 -33 -23 -78 -31 -100 -8 -23 -14 -48 -14
-57 0 -10 -6 -32 -14 -50 -8 -18 -22 -62 -31 -98 -26 -99 -46 -141 -73 -151
-40 -15 -69 0 -105 55 -19 28 -69 105 -112 171 -43 66 -219 331 -390 590 -448
676 -633 956 -706 1070 -35 55 -67 101 -71 103 -14 6 -20 70 -8 92 7 13 47 38
98 62 48 22 105 48 127 58 100 47 197 90 200 90 2 0 47 21 101 46 93 43 275
127 392 180 28 13 76 35 105 48 28 13 105 49 169 80 64 31 119 56 122 56 4 0
126 56 261 120 33 16 110 51 170 78 102 47 266 123 395 185 66 31 91 33 114 8z"/>
</g>
</svg>
